<?xml version="1.0" encoding="utf-8"?>
<!-- Generator: Adobe Illustrator 24.2.3, SVG Export Plug-In . SVG Version: 6.00 Build 0)  -->
<svg version="1.1" id="Capa_1" xmlns="http://www.w3.org/2000/svg" xmlns:xlink="http://www.w3.org/1999/xlink" x="0px" y="0px"
	 viewBox="0 0 32 32" style="enable-background:new 0 0 32 32;" xml:space="preserve">
<style type="text/css">
	.st0{fill:url(#SVGID_1_);}
	.st1{opacity:0.3;fill:#FFFFFF;enable-background:new    ;}
	.st2{fill:#231F20;}
</style>
<g id="Capa_1-2_1_">
	
		<radialGradient id="SVGID_1_" cx="15.3176" cy="766.2121" r="7.309" gradientTransform="matrix(1 0 0 1 0 -753.2119)" gradientUnits="userSpaceOnUse">
		<stop  offset="0" style="stop-color:#F19778"/>
		<stop  offset="8.000000e-02" style="stop-color:#F18B69"/>
		<stop  offset="0.25" style="stop-color:#F16D41"/>
		<stop  offset="0.33" style="stop-color:#F15A29"/>
		<stop  offset="0.68" style="stop-color:#ED1C24"/>
		<stop  offset="1" style="stop-color:#B51D2B"/>
	</radialGradient>
	<circle class="st0" cx="16" cy="13.6" r="7.3"/>
	<path class="st1" d="M15.4,20.5c-1.2-0.3-2.4-0.8-3.4-1.6c-0.8-0.7-1.4-1.4-1.9-2.3c0,0,0.5,1.9,2.1,3
		C13.2,20.1,14.3,20.4,15.4,20.5z"/>
	<path class="st2" d="M15.1,10.6C15,10.6,15,10.6,15.1,10.6L13,9.9c-0.1,0-0.2-0.1-0.1-0.3s0.1-0.2,0.3-0.1l2,0.7
		c0.1,0,0.2,0.1,0.1,0.2l0,0C15.2,10.5,15.1,10.6,15.1,10.6z"/>
	<path class="st2" d="M16.9,10.6c-0.1,0-0.2-0.1-0.2-0.2c0-0.1,0.1-0.2,0.1-0.2l2-0.7c0.1,0,0.2,0,0.3,0.1c0,0.1,0,0.2-0.1,0.3l0,0
		L16.9,10.6L16.9,10.6z"/>
	<path class="st2" d="M12.5,17.4L12.5,17.4c-0.2,0-0.2-0.1-0.2-0.3c0.5-1.6,1.9-2.6,3.6-2.6l0,0c1.6,0,3.1,1.1,3.5,2.6
		c0,0.1,0,0.2-0.1,0.2s-0.2,0-0.2-0.1l0,0c-0.4-1.4-1.7-2.3-3.2-2.4c-1.5,0-2.8,0.9-3.3,2.4C12.7,17.3,12.6,17.4,12.5,17.4z"/>
	<circle class="st2" cx="14.1" cy="11.7" r="0.8"/>
	<circle class="st2" cx="17.8" cy="11.7" r="0.8"/>
</g>
</svg>
