<?xml version="1.0" encoding="utf-8"?>
<!-- Generator: Adobe Illustrator 24.2.3, SVG Export Plug-In . SVG Version: 6.00 Build 0)  -->
<svg version="1.1" id="Capa_1" xmlns="http://www.w3.org/2000/svg" xmlns:xlink="http://www.w3.org/1999/xlink" x="0px" y="0px"
	 viewBox="0 0 32 32" style="enable-background:new 0 0 32 32;" xml:space="preserve">
<style type="text/css">
	.st0{fill:url(#SVGID_1_);}
	.st1{opacity:0.4;fill:#FFFFFF;enable-background:new    ;}
	.st2{fill:#603913;}
</style>
<g>
	<g id="Capa_2_1_">
		<g id="Capa_1-2">
			
				<radialGradient id="SVGID_1_" cx="15.3176" cy="766.2121" r="7.309" gradientTransform="matrix(1 0 0 1 0 -753.2119)" gradientUnits="userSpaceOnUse">
				<stop  offset="0" style="stop-color:#EFF2A9"/>
				<stop  offset="0.1" style="stop-color:#EEF29A"/>
				<stop  offset="0.3" style="stop-color:#ECF272"/>
				<stop  offset="0.33" style="stop-color:#ECF26A"/>
				<stop  offset="0.68" style="stop-color:#D7DF23"/>
				<stop  offset="1" style="stop-color:#C9D121"/>
			</radialGradient>
			<circle class="st0" cx="16" cy="13.6" r="7.3"/>
			<path class="st1" d="M15.4,20.5c-1.2-0.3-2.4-0.8-3.4-1.6c-0.8-0.7-1.4-1.4-1.9-2.3c0,0,0.5,1.9,2.1,3
				C13.2,20.1,14.3,20.4,15.4,20.5z"/>
			<path class="st2" d="M16,18.1c-2,0-3.7-1.6-3.7-3.7c0-0.1,0.1-0.2,0.2-0.1c0.1,0,0.1,0.1,0.1,0.1c-0.1,1.8,1.4,3.4,3.2,3.4
				c1.8,0.1,3.4-1.4,3.4-3.2c0-0.1,0-0.1,0-0.2c0-0.1,0.1-0.2,0.2-0.2s0.2,0.1,0.2,0.2C19.7,16.4,18,18.1,16,18.1z"/>
			<circle class="st2" cx="13.7" cy="11.4" r="0.8"/>
			<circle class="st2" cx="18.4" cy="11.4" r="0.8"/>
		</g>
	</g>
</g>
</svg>
