<?xml version="1.0" encoding="utf-8"?>
<!-- Generator: Adobe Illustrator 24.2.3, SVG Export Plug-In . SVG Version: 6.00 Build 0)  -->
<svg version="1.1" id="Capa_1" xmlns="http://www.w3.org/2000/svg" xmlns:xlink="http://www.w3.org/1999/xlink" x="0px" y="0px"
	 viewBox="0 0 32 32" style="enable-background:new 0 0 32 32;" xml:space="preserve">
<style type="text/css">
	.st0{fill:url(#SVGID_1_);}
	.st1{opacity:0.4;fill:#FFFFFF;enable-background:new    ;}
	.st2{fill:url(#SVGID_2_);}
	.st3{fill:url(#SVGID_3_);}
	.st4{fill:#603913;}
</style>
<g>
	<g id="Capa_2_1_">
		<g id="Capa_1-2">
			
				<radialGradient id="SVGID_1_" cx="15.3176" cy="766.2121" r="7.309" gradientTransform="matrix(1 0 0 1 0 -753.2119)" gradientUnits="userSpaceOnUse">
				<stop  offset="0" style="stop-color:#89EB95"/>
				<stop  offset="0.13" style="stop-color:#7AE588"/>
				<stop  offset="0.33" style="stop-color:#59D96B"/>
				<stop  offset="0.68" style="stop-color:#35CC4A"/>
				<stop  offset="1" style="stop-color:#34A644"/>
			</radialGradient>
			<circle class="st0" cx="16" cy="13.6" r="7.3"/>
			<path class="st1" d="M15.4,20.5c-1.2-0.3-2.4-0.8-3.4-1.6c-0.8-0.7-1.4-1.4-1.9-2.3c0,0,0.5,1.9,2.1,3
				C13.2,20.1,14.3,20.4,15.4,20.5z"/>
			
				<radialGradient id="SVGID_2_" cx="16" cy="770.964" r="3.4409" gradientTransform="matrix(1 0 0 1 0 -753.2119)" gradientUnits="userSpaceOnUse">
				<stop  offset="0" style="stop-color:#8A521B"/>
				<stop  offset="1" style="stop-color:#603913"/>
			</radialGradient>
			<path class="st2" d="M20.3,14c-0.1,1.9-0.9,3-1.9,3.7c-0.3,0.2-0.7,0.4-1.1,0.6l0,0c-0.1,0-0.2,0.1-0.3,0.1l0,0
				c-0.7,0.2-1.4,0.2-2,0l0,0c-0.1,0-0.2-0.1-0.3-0.1l0,0c-0.4-0.1-0.8-0.3-1.1-0.6c-0.9-0.7-1.8-1.8-1.9-3.7c0,0,0.2,0.1,0.5,0.1
				l0,0l0.3,0.1c1.1,0.3,2.3,0.4,3.4,0.4c1.2,0,2.3-0.2,3.4-0.4h0.2C20.1,14.1,20.3,14,20.3,14z"/>
			
				<radialGradient id="SVGID_3_" cx="15.9303" cy="19125.2344" r="3.6935" gradientTransform="matrix(1 0 0 0.35 0 -6698.9077)" gradientUnits="userSpaceOnUse">
				<stop  offset="0" style="stop-color:#FFFFFF"/>
				<stop  offset="0.31" style="stop-color:#FCFCFC"/>
				<stop  offset="0.54" style="stop-color:#F2F3F3"/>
				<stop  offset="0.75" style="stop-color:#E2E3E3"/>
				<stop  offset="0.95" style="stop-color:#CBCDCE"/>
				<stop  offset="1" style="stop-color:#C4C6C7"/>
			</radialGradient>
			<path class="st3" d="M19.6,14.6c0,0.2-0.1,0.4-0.1,0.6c-2.3,0.4-4.6,0.4-6.9,0c-0.2-0.3-0.3-0.7-0.3-1.1l0.3,0.1
				c1.1,0.3,2.3,0.4,3.4,0.4c1.2,0,2.3-0.2,3.4-0.4h0.2C19.6,14.3,19.6,14.5,19.6,14.6z"/>
			<path class="st4" d="M12.9,11.8l0.5-1.1c0.1-0.1,0.3-0.2,0.4-0.1l0.1,0.1l0.5,1.1c0.1,0.1,0,0.3-0.1,0.4c-0.1,0-0.2,0-0.3,0
				L13.8,12c-0.1-0.1-0.2-0.1-0.3,0l-0.2,0.2c-0.1,0.1-0.3,0-0.4-0.1C12.8,11.9,12.8,11.9,12.9,11.8z"/>
			<path class="st4" d="M17.6,11.8l0.5-1.1c0.1-0.1,0.3-0.2,0.4-0.1l0.1,0.1l0.5,1.1c0,0.1,0,0.3-0.2,0.3c-0.1,0-0.1,0-0.2,0
				L18.5,12c-0.1-0.1-0.2-0.1-0.3,0L18,12.1c-0.1,0.1-0.3,0-0.4-0.1C17.6,11.9,17.6,11.8,17.6,11.8z"/>
		</g>
	</g>
</g>
</svg>
