<svg xmlns="http://www.w3.org/2000/svg" viewBox="0 0 118.31 86.33"><defs><style>.cls-1{fill:#001943;}.cls-2{fill:#a19fa0;}.cls-3{fill:#cb2d30;}.cls-4{fill:#002856;}</style></defs><g id="Capa_2" data-name="Capa 2"><g id="Capa_1-2" data-name="Capa 1"><path class="cls-1" d="M2.79,83.88h2a2.6,2.6,0,0,1-.5,1.59,2.23,2.23,0,0,1-1.82.82A2.44,2.44,0,0,1,0,83.79a2.48,2.48,0,0,1,2.53-2.5,2.37,2.37,0,0,1,1.52.53,2.85,2.85,0,0,1,.58.61l-.25.2a2.39,2.39,0,0,0-.47-.54,2.2,2.2,0,0,0-1.39-.5A2.18,2.18,0,0,0,.33,83.81,2.15,2.15,0,0,0,2.5,86a2,2,0,0,0,1.69-.82,2.3,2.3,0,0,0,.32-1H2.79Z"/><path class="cls-1" d="M10.4,81.65h-2v1.76h2v.29h-2v2.22h2v.29H8.08V81.36H10.4Z"/><path class="cls-1" d="M13.65,86.21v-4.9l4.07,4.26V81.36H18v5L14,82.07v4.14Z"/><path class="cls-1" d="M23.88,81.65h-2v1.76h2v.29h-2v2.22h2v.29H21.56V81.36h2.32Z"/><path class="cls-1" d="M29.17,86.21,27.6,83.92h-.15v2.29h-.32V81.36h.7a1.7,1.7,0,0,1,1,.25,1.22,1.22,0,0,1,.5,1,1.15,1.15,0,0,1-.82,1.17,1.77,1.77,0,0,1-.59.1l1.58,2.29Zm-1.72-2.58h.47a1,1,0,0,0,1.1-1,.89.89,0,0,0-.43-.84,1.66,1.66,0,0,0-.74-.15h-.4Z"/><path class="cls-1" d="M35,84.62H33l-.65,1.59H32l2-5,2,5h-.35Zm-.11-.29L34,82l-.92,2.3Z"/><path class="cls-1" d="M39,86.21v-4.9l4.07,4.26V81.36h.32v5L39.3,82.07v4.14Z"/><path class="cls-1" d="M46.88,86.21V81.36h1a2.46,2.46,0,0,1,1.79.68,2.53,2.53,0,0,1,0,3.49,2.46,2.46,0,0,1-1.79.68Zm.32-.29h.63a2.14,2.14,0,1,0,0-4.27H47.2Z"/><path class="cls-1" d="M58.35,83.79a2.52,2.52,0,1,1-2.52-2.5A2.48,2.48,0,0,1,58.35,83.79Zm-.34,0A2.18,2.18,0,1,0,55.83,86,2.15,2.15,0,0,0,58,83.79Z"/><path class="cls-1" d="M65.82,83.9v2.31H65.5V81.36h.93a1.28,1.28,0,1,1,0,2.54Zm0-.29h.64a1,1,0,0,0,1.06-1c0-.6-.41-1-1.12-1h-.58Z"/><path class="cls-1" d="M73,86.21l-1.57-2.29h-.15v2.29h-.32V81.36h.7a1.7,1.7,0,0,1,1,.25,1.22,1.22,0,0,1,.5,1,1.15,1.15,0,0,1-.82,1.17,1.77,1.77,0,0,1-.59.1l1.58,2.29Zm-1.72-2.58h.47a1,1,0,0,0,1.1-1,.89.89,0,0,0-.43-.84,1.66,1.66,0,0,0-.74-.15h-.4Z"/><path class="cls-1" d="M81.24,83.79a2.52,2.52,0,1,1-2.52-2.5A2.48,2.48,0,0,1,81.24,83.79Zm-.34,0A2.18,2.18,0,1,0,78.72,86,2.15,2.15,0,0,0,80.9,83.79Z"/><path class="cls-1" d="M87,83.88h2a2.58,2.58,0,0,1-.49,1.59,2.25,2.25,0,0,1-1.83.82,2.43,2.43,0,0,1-2.5-2.5,2.47,2.47,0,0,1,2.53-2.5,2.32,2.32,0,0,1,1.51.53,2.65,2.65,0,0,1,.59.61l-.26.2a2.38,2.38,0,0,0-.46-.54,2.23,2.23,0,0,0-1.39-.5,2.17,2.17,0,0,0-2.19,2.22A2.15,2.15,0,0,0,86.73,86a2,2,0,0,0,1.68-.82,2.17,2.17,0,0,0,.32-1H87Z"/><path class="cls-1" d="M94.34,86.21l-1.57-2.29h-.15v2.29H92.3V81.36H93a1.66,1.66,0,0,1,1,.25,1.21,1.21,0,0,1,.51,1,1.15,1.15,0,0,1-.82,1.17,1.81,1.81,0,0,1-.59.1l1.58,2.29Zm-1.72-2.58h.47a1,1,0,0,0,1.1-1,.89.89,0,0,0-.43-.84,1.66,1.66,0,0,0-.74-.15h-.4Z"/><path class="cls-1" d="M100.23,81.65h-2v1.76h2v.29h-2v2.22h2v.29H97.91V81.36h2.32Z"/><path class="cls-1" d="M105.7,82.18a1,1,0,0,0-1-.59.86.86,0,0,0-.9.9c0,.52.37.69.85.93a8.66,8.66,0,0,1,1,.51,1.08,1.08,0,0,1,.52.94,1.46,1.46,0,0,1-1.52,1.42,1.38,1.38,0,0,1-1.12-.51,1.82,1.82,0,0,1-.32-.53l.28-.13a1.7,1.7,0,0,0,.26.46,1.17,1.17,0,0,0,.91.42,1.12,1.12,0,0,0,1.17-1.12.87.87,0,0,0-.47-.77l-.82-.42a1.81,1.81,0,0,1-.89-.64,1,1,0,0,1-.15-.55,1.18,1.18,0,0,1,1.24-1.21,1.31,1.31,0,0,1,1.18.7Z"/><path class="cls-1" d="M114.12,83.79a2.52,2.52,0,1,1-2.51-2.5A2.48,2.48,0,0,1,114.12,83.79Zm-.33,0A2.18,2.18,0,1,0,111.61,86,2.15,2.15,0,0,0,113.79,83.79Z"/><path class="cls-2" d="M88.05,48.08a2.48,2.48,0,0,1-1.62-.26L71.62,40a3.24,3.24,0,0,0-1.38-.34,3.1,3.1,0,0,0-1.32.33l-2.7,1.45a2.64,2.64,0,0,1-1.15.3,2.5,2.5,0,0,1-1.42-.48l-8.25-6a2.78,2.78,0,0,0-1.65-.52h0a3.18,3.18,0,0,0-1.7.59L46.5,39.58a2.47,2.47,0,0,1-1.16.46,2.61,2.61,0,0,1-1.18-.16l-2.5-1a2.93,2.93,0,0,0-1.5-.21,3.09,3.09,0,0,0-1.35.57L32,44.39a2.49,2.49,0,0,1-1,.45,2.38,2.38,0,0,1-1.26-.12L21.38,41.9a3,3,0,0,0-1-.15,3.08,3.08,0,0,0-1.05.24L0,50.59v-1.2L18.83,41a4,4,0,0,1,1.46-.34,4,4,0,0,1,1.46.22l8.39,2.82a1.45,1.45,0,0,0,.7.06,1.3,1.3,0,0,0,.54-.24l6.76-5.18a4.43,4.43,0,0,1,1.9-.78,3.9,3.9,0,0,1,2.07.3l2.45,1a1.76,1.76,0,0,0,.53.09h.13a1.34,1.34,0,0,0,.6-.23l5.53-4.19a4.18,4.18,0,0,1,2.42-.83,4,4,0,0,1,2.29.75l8.24,6a1.41,1.41,0,0,0,.77.27,1.55,1.55,0,0,0,.63-.17l2.71-1.46a4.39,4.39,0,0,1,1.86-.45,4.25,4.25,0,0,1,1.87.47L87,46.88a1.17,1.17,0,0,0,.73.14c.08.23.15.47.23.7Z"/><path class="cls-1" d="M95.26,45.94l-7.21,2.14-.12-.36c-.08-.23-.15-.47-.23-.7-.31-.92-.66-1.84-1-2.73A52.9,52.9,0,0,0,.25,26.74l0,0a.11.11,0,0,1-.08,0A.13.13,0,0,1,0,26.66a.15.15,0,0,1,0-.09v0a55.79,55.79,0,0,1,95.2,19.39Z"/><path class="cls-3" d="M114.13,52v.56l-12.62-8.47-5.29,1.57A57.14,57.14,0,0,0,3.31,21.3a.18.18,0,0,1-.12.05A.18.18,0,0,1,3,21.17a.17.17,0,0,1,0-.12A64.6,64.6,0,0,1,111,41.26,63.7,63.7,0,0,1,114.13,52Z"/><path class="cls-1" d="M14.62,73v2.12A20.13,20.13,0,0,1,4.31,72.64C1.47,71,0,69,0,66.64s1.43-4.34,4.27-6a20.23,20.23,0,0,1,10.31-2.48v2.12a13.87,13.87,0,0,0-7.36,1.86c-2,1.24-3,2.74-3,4.5s1,3.27,3.05,4.51A13.87,13.87,0,0,0,14.62,73Z"/><path class="cls-1" d="M40.53,73v2.12a20.16,20.16,0,0,1-10.31-2.49Q26,70.15,26,66.64t4.26-6a20.26,20.26,0,0,1,10.31-2.48v2.12a13.87,13.87,0,0,0-7.36,1.86q-3,1.86-3.05,4.5c0,1.76,1,3.27,3.05,4.51A13.87,13.87,0,0,0,40.53,73Z"/><path class="cls-1" d="M51.87,58.16H56v17H51.87Z"/><path class="cls-1" d="M77.77,62.4,84,58.16h4.16v17H84V61.34l-6.25,4.24-6.25-4.24V75.13H67.36v-17h4.16Z"/><path class="cls-1" d="M112,61.34v7.42h2.08v2.13H112v4.24h-4.17V70.89h-4.16v4.24H99.52V70.89H97.44V68.76h2.08V61.34c0-.88.61-1.63,1.84-2.25a10.92,10.92,0,0,1,8.82,0C111.41,59.71,112,60.46,112,61.34Zm-8.33,0v7.42h4.16V61.34c0-.29-.2-.54-.61-.75a3.64,3.64,0,0,0-2.94,0C103.89,60.8,103.69,61.05,103.69,61.34Z"/><path class="cls-4" d="M116,71.41a1,1,0,0,1,.73.22.81.81,0,0,1,.29.64.79.79,0,0,1-.34.68.9.9,0,0,1-.31.13l.89,1.21h-.7l-.76-1.16h-.07v1.16h-.56V71.41Zm-.27,1.33h.16c.1,0,.55,0,.55-.44s-.44-.43-.54-.43h-.17Z"/><path class="cls-4" d="M116.05,75.13a2.26,2.26,0,1,1,2.26-2.26A2.26,2.26,0,0,1,116.05,75.13Zm0-4.16a1.9,1.9,0,1,0,1.9,1.9A1.9,1.9,0,0,0,116.05,71Z"/></g></g></svg>