<svg xmlns="http://www.w3.org/2000/svg" viewBox="0 0 41.2 41.1"><defs><style>.cls-1{fill:#f7f7f7;}</style></defs><title>instragram</title><g id="Capa_2" data-name="Capa 2"><g id="Capa_1-2" data-name="Capa 1"><path class="cls-1" d="M20.5,3.7c5.5,0,6.1,0,8.3.1a10.94,10.94,0,0,1,3.8.7A7.48,7.48,0,0,1,35,6a6.08,6.08,0,0,1,1.5,2.4,10.94,10.94,0,0,1,.7,3.8c.1,2.2.1,2.8.1,8.3s0,6.1-.1,8.3a10.94,10.94,0,0,1-.7,3.8,6.81,6.81,0,0,1-3.9,3.9,10.94,10.94,0,0,1-3.8.7c-2.2.1-2.8.1-8.3.1s-6.1,0-8.3-.1a10.94,10.94,0,0,1-3.8-.7A7.48,7.48,0,0,1,6,35a6.08,6.08,0,0,1-1.5-2.4,10.94,10.94,0,0,1-.7-3.8c-.1-2.2-.1-2.8-.1-8.3s0-6.1.1-8.3a10.94,10.94,0,0,1,.7-3.8A7.48,7.48,0,0,1,6,6,6.08,6.08,0,0,1,8.4,4.5a10.94,10.94,0,0,1,3.8-.7c2.2-.1,2.9-.1,8.3-.1m0-3.7c-5.6,0-6.3,0-8.5.1a13,13,0,0,0-5,1A10.14,10.14,0,0,0,3.5,3.4,10.82,10.82,0,0,0,1.1,7a15.13,15.13,0,0,0-1,5C0,14.2,0,14.9,0,20.5S0,26.8.1,29a13,13,0,0,0,1,5,9.5,9.5,0,0,0,2.4,3.6A10.82,10.82,0,0,0,7.1,40a15.13,15.13,0,0,0,5,1c2.2.1,2.9.1,8.5.1s6.3,0,8.5-.1a13,13,0,0,0,5-1,10.43,10.43,0,0,0,6-6,15.13,15.13,0,0,0,1-5c.1-2.2.1-2.9.1-8.5s0-6.3-.1-8.5a13,13,0,0,0-1-5,8.79,8.79,0,0,0-2.4-3.6A10.82,10.82,0,0,0,34.1,1a15.13,15.13,0,0,0-5-1Z"/><path class="cls-1" d="M20.5,10A10.5,10.5,0,1,0,31,20.5h0A10.37,10.37,0,0,0,20.5,10Zm0,17.4a6.8,6.8,0,1,1,6.8-6.8A6.81,6.81,0,0,1,20.5,27.4Z"/><circle class="cls-1" cx="31.5" cy="9.6" r="2.5"/></g></g></svg>