<svg xmlns="http://www.w3.org/2000/svg" viewBox="0 0 44.31 36.01"><defs><style>.cls-1{fill:#f7f7f7;}</style></defs><title>twitter</title><g id="Capa_2" data-name="Capa 2"><g id="Capa_1-2" data-name="Capa 1"><path class="cls-1" d="M39.09,5.69a9.06,9.06,0,0,0,4-5,18,18,0,0,1-5.77,2.21A9.09,9.09,0,0,0,21.59,9.09a9.38,9.38,0,0,0,.23,2.07A25.84,25.84,0,0,1,3.08,1.66,9.1,9.1,0,0,0,5.9,13.8a9.13,9.13,0,0,1-4.12-1.14v.12a9.09,9.09,0,0,0,7.29,8.91A9,9,0,0,1,6.68,22,9.54,9.54,0,0,1,5,21.85a9.08,9.08,0,0,0,8.49,6.31A18.22,18.22,0,0,1,2.17,32.05,17.21,17.21,0,0,1,0,31.92,25.71,25.71,0,0,0,13.93,36C30.66,36,39.8,22.16,39.8,10.14q0-.59,0-1.17a18.32,18.32,0,0,0,4.54-4.71A17.94,17.94,0,0,1,39.09,5.69Z"/></g></g></svg>